<?xml version="1.0" standalone="no"?>
<!DOCTYPE svg PUBLIC "-//W3C//DTD SVG 20010904//EN"
 "http://www.w3.org/TR/2001/REC-SVG-20010904/DTD/svg10.dtd">
<svg version="1.0" xmlns="http://www.w3.org/2000/svg"
 width="16.000000pt" height="16.000000pt" viewBox="0 0 16.000000 16.000000"
 preserveAspectRatio="xMidYMid meet">
<metadata>
Created by potrace 1.11, written by Peter Selinger 2001-2013
</metadata>
<g transform="translate(0.000000,16.000000) scale(0.002286,-0.002286)"
fill="#000000" stroke="none">
<path d="M3355 6984 c-427 -25 -787 -102 -1146 -244 -1043 -415 -1841 -1336
-2099 -2424 -67 -282 -93 -510 -93 -816 0 -306 26 -534 93 -816 299 -1261
1313 -2275 2574 -2574 282 -67 510 -93 816 -93 306 0 534 26 816 93 1261 299
2275 1313 2574 2574 67 282 93 510 93 816 0 237 -10 364 -44 570 -169 1031
-798 1934 -1714 2460 -413 238 -908 395 -1385 439 -122 12 -398 20 -485 15z
m2605 -1020 c0 -4 -207 -632 -459 -1398 -253 -765 -467 -1420 -476 -1454 -55
-216 -160 -426 -302 -602 -298 -370 -742 -580 -1223 -580 -875 0 -1570 695
-1570 1570 0 436 172 841 481 1135 177 168 347 271 584 355 138 48 2946 979
2958 979 4 1 7 -2 7 -5z"/>
</g>
</svg>
